<?xml version="1.0" encoding="UTF-8" standalone="no"?>
<!-- Created with Inkscape (http://www.inkscape.org/) -->

<svg
   width="210mm"
   height="297mm"
   viewBox="0 0 210 297"
   version="1.1"
   id="svg5"
   inkscape:version="1.1.2 (b8e25be833, 2022-02-05)"
   sodipodi:docname="Colegio de Bachilleres Logo.svg"
   xmlns:inkscape="http://www.inkscape.org/namespaces/inkscape"
   xmlns:sodipodi="http://sodipodi.sourceforge.net/DTD/sodipodi-0.dtd"
   xmlns="http://www.w3.org/2000/svg"
   xmlns:svg="http://www.w3.org/2000/svg">
  <sodipodi:namedview
     id="namedview7"
     pagecolor="#ffffff"
     bordercolor="#666666"
     borderopacity="1.0"
     inkscape:pageshadow="2"
     inkscape:pageopacity="0.0"
     inkscape:pagecheckerboard="0"
     inkscape:document-units="mm"
     showgrid="false"
     inkscape:snap-global="true"
     inkscape:zoom="0.74029882"
     inkscape:cx="293.80028"
     inkscape:cy="561.25984"
     inkscape:window-width="1278"
     inkscape:window-height="1008"
     inkscape:window-x="-7"
     inkscape:window-y="0"
     inkscape:window-maximized="0"
     inkscape:current-layer="layer1" />
  <defs
     id="defs2" />
  <g
     inkscape:label="Capa 1"
     inkscape:groupmode="layer"
     id="layer1"
     style="display:inline">
    <path
       style="fill:#000000;stroke-width:0.201311"
       d="m 112.92914,280.13545 c -24.524802,-0.0916 -56.412572,-0.23514 -70.861719,-0.31896 l -26.271174,-0.15242 -0.954825,-0.47022 c -1.048937,-0.51659 -1.597416,-1.16423 -2.10519,-2.48581 -0.437195,-1.1379 -0.497689,-6.10661 -0.08901,-7.31086 0.445357,-1.31231 1.210706,-2.26607 2.215269,-2.76059 0.896934,-0.44154 1.184045,-0.46366 7.280423,-0.56069 l 6.346665,-0.10102 1.34291,-0.66165 c 2.977253,-1.46691 4.787757,-4.96676 4.187834,-8.09541 -0.479414,-2.50019 -2.059936,-4.58529 -4.346264,-5.73385 l -1.195174,-0.6004 -6.341318,-0.10977 c -6.044188,-0.10464 -6.380859,-0.13066 -7.185231,-0.55528 -1.848946,-0.97607 -2.477731,-2.56429 -2.477731,-6.25844 0,-3.79638 0.632281,-5.35101 2.561251,-6.29755 0.930713,-0.4567 1.166062,-0.47526 7.303023,-0.57584 7.100488,-0.11637 7.176604,-0.13067 9.059025,-1.70158 4.336878,-3.6192 3.508455,-10.33615 -1.584216,-12.84498 l -1.324522,-0.65251 -6.245804,-0.10861 c -6.895159,-0.11988 -7.139549,-0.16179 -8.326424,-1.4277 -1.058379,-1.12887 -1.341677,-2.29318 -1.341677,-5.51405 0,-2.78362 0.0092,-2.84141 0.660777,-4.16481 0.781163,-1.58652 1.52101,-2.13155 3.216435,-2.36948 1.146591,-0.16093 80.683013,0.0603 136.135067,0.37867 l 28.88823,0.16586 1.85199,0.52444 c 3.62902,1.02765 6.68171,2.80254 9.28997,5.40135 7.52957,7.5023 8.35928,19.87777 1.901,28.35453 -0.58572,0.76874 -1.06491,1.45528 -1.06491,1.5256 0,0.0703 0.34289,0.54809 0.76198,1.0617 2.08863,2.55967 3.61366,5.99001 4.25766,9.5769 0.36391,2.02688 0.26809,6.22846 -0.18992,8.32691 -1.12064,5.13466 -3.91847,9.59512 -7.8494,12.51398 -2.58776,1.9215 -4.69534,2.91064 -7.94721,3.7298 l -2.00848,0.50596 -11.4794,-0.0333 c -6.31365,-0.0183 -31.54511,-0.10828 -56.06991,-0.19987 z m 68.28873,-14.21829 c 2.23143,-1.09861 3.74333,-3.16799 4.19048,-5.73567 0.65986,-3.78927 -1.98042,-7.75688 -5.71953,-8.59482 -0.59413,-0.13315 -17.72293,-0.27348 -48.78504,-0.39968 -70.689867,-0.28723 -84.716742,-0.29601 -84.66536,-0.053 0.02426,0.11471 0.250738,0.96433 0.50328,1.88802 0.405834,1.48439 0.457742,2.12379 0.446883,5.50441 -0.0126,3.92169 6.04e-4,3.82587 -1.01002,7.29755 l -0.131866,0.45295 16.178742,0.0294 c 8.898309,0.0161 28.589606,0.0893 43.758441,0.16258 15.16884,0.0732 37.99954,0.12795 50.73488,0.12157 l 23.15517,-0.0116 1.34394,-0.66164 z m -0.0215,-28.88228 c 1.42097,-0.69817 3.05695,-2.40878 3.74863,-3.91963 1.00867,-2.2032 0.82133,-5.09837 -0.45945,-7.10073 -0.49257,-0.7701 -1.65859,-1.9164 -2.60708,-2.56299 -1.63144,-1.11218 1.8215,-1.03555 -56.54161,-1.25497 -29.577464,-0.11121 -59.461745,-0.23333 -66.409515,-0.27136 -9.744802,-0.0533 -12.632308,-0.0138 -12.632308,0.17297 0,0.13315 0.128874,0.60738 0.286386,1.05381 0.157511,0.44645 0.44222,1.74366 0.632685,2.88272 0.569484,3.40578 0.309015,6.42922 -0.934779,10.85065 -0.0747,0.26552 1.360042,0.30869 11.893098,0.35766 6.587925,0.0306 27.106618,0.12981 45.597103,0.22038 18.49047,0.0906 43.22161,0.15611 54.95809,0.14563 l 21.33904,-0.0191 1.12971,-0.55506 z M 109.10421,202.23744 C 99.696082,201.30218 93.373336,200.00381 85.10612,197.30948 67.226672,191.48246 51.342686,180.53052 39.480183,165.85059 31.707836,156.23224 25.757364,144.8238 22.43416,133.16939 19.378151,122.45202 18.291747,112.52111 19.00557,101.82841 20.021691,86.607418 23.94391,73.83014 31.408,61.425427 41.833918,44.0984 58.825099,30.517869 78.605492,23.701922 c 7.933971,-2.733896 16.15545,-4.303631 25.501878,-4.869097 10.58891,-0.640637 23.28499,1.125121 33.7614,4.6955 9.94208,3.388285 18.83221,8.172917 26.59068,14.311002 9.47061,7.492648 17.07258,16.529548 22.58754,26.851116 0.77903,1.458031 1.0349,2.164338 1.11867,3.088194 0.21619,2.384089 -1.34547,4.320024 -4.87809,6.047226 -2.91163,1.423579 -4.99798,1.270077 -6.42446,-0.472678 -0.37764,-0.461356 -1.38786,-2.061801 -2.24495,-3.55654 -10.7081,-18.674468 -28.80804,-31.494061 -50.73468,-35.9337 -5.5947,-1.132802 -8.53852,-1.401745 -15.28254,-1.396193 -6.73616,0.0056 -10.037168,0.30238 -15.307301,1.376466 -13.0517,2.660018 -24.93558,8.261085 -34.609883,16.312205 -17.820333,14.830387 -27.270995,36.031955 -26.612458,59.702247 0.404417,14.53628 4.907554,28.63274 13.125105,41.08638 8.122044,12.30888 19.192364,22.03968 32.603843,28.65873 21.187706,10.45691 44.648514,12.17777 67.066144,4.91933 11.87108,-3.84364 22.61753,-10.10171 32.30054,-18.80982 1.34855,-1.21278 2.73384,-2.39541 3.0784,-2.62806 2.04203,-1.37876 3.98122,-1.0107 6.32312,1.20016 2.07627,1.96009 3.46611,4.37912 3.46109,6.02415 -0.004,1.26159 -0.85165,2.56638 -3.04023,4.67889 -4.68349,4.52067 -11.16434,9.42021 -17.3122,13.08806 -13.51091,8.06072 -28.9293,12.97724 -44.45787,14.17646 -3.14854,0.24315 -13.61797,0.23372 -16.11503,-0.0145 z m 0.10067,-19.81216 C 87.158883,180.06024 67.678814,169.27017 54.516321,152.13312 47.93669,143.56671 42.943122,132.59058 40.869951,122.13768 39.691939,116.19817 39.549759,114.5744 39.565513,107.24062 39.581783,99.665168 39.796429,97.523388 41.159294,91.336998 44.899348,74.359944 54.942013,59.791968 69.546466,50.158321 84.549058,40.262043 102.18624,36.50322 119.97504,39.41102 c 14.11854,2.307849 27.27066,8.967393 37.13676,18.804112 10.95275,10.92012 17.49632,24.658416 19.0223,39.937466 0.30163,3.019992 0.25197,9.563772 -0.0965,12.711632 -1.23461,11.15372 -4.84398,20.44626 -11.38445,29.30986 -5.83414,7.90642 -15.66522,15.23748 -25.45287,18.9803 -7.52191,2.87639 -14.2739,3.9831 -23.1249,3.79034 -5.20738,-0.11341 -6.96275,-0.30747 -11.33804,-1.25343 -14.230726,-3.07678 -27.338987,-11.83985 -35.232243,-23.55331 -6.313613,-9.36929 -9.505553,-19.7075 -9.517487,-30.82571 -0.009,-8.383972 1.691591,-15.932502 5.163703,-22.920542 6.070399,-12.217378 17.32829,-21.174977 31.013003,-24.676206 4.337344,-1.109708 7.370274,-1.470074 12.335924,-1.465726 6.4981,0.0057 12.01923,1.039825 17.81473,3.336775 13.49657,5.349143 23.70017,16.343985 27.64642,29.790227 3.84575,13.103802 1.63731,27.154092 -5.83786,37.141202 -5.49574,7.3425 -14.07531,12.53211 -23.61901,14.28665 -1.61067,0.29611 -2.99911,0.36871 -6.94526,0.36313 -4.63237,-0.007 -5.09017,-0.0412 -7.53252,-0.57007 -9.8704,-2.1374 -17.980544,-7.53984 -23.379242,-15.57368 -2.665555,-3.96664 -4.489318,-8.27793 -5.464723,-12.91838 -0.475496,-2.26215 -0.534627,-2.9946 -0.546086,-6.76438 -0.01179,-3.88427 0.03311,-4.44823 0.553134,-6.94526 1.067433,-5.125522 2.739878,-8.881972 5.45206,-12.245772 3.720123,-4.61391 8.895258,-7.93446 14.613237,-9.376372 7.92817,-1.999262 16.44542,-0.428194 22.93958,4.231362 3.37618,2.42242 6.48518,6.02049 8.2879,9.59166 2.66748,5.28424 3.42752,11.569922 2.10594,17.416552 -0.88426,3.91193 -2.21251,6.4099 -4.75172,8.93625 -1.50565,1.49803 -2.04816,1.88742 -3.84463,2.75949 -2.86926,1.39285 -4.45166,1.7408 -7.82899,1.72147 -3.3251,-0.019 -5.21375,-0.45661 -8.15312,-1.88895 -7.0877,-3.4538 -10.341314,-10.50313 -8.4503,-18.30854 1.13648,-4.690982 2.18794,-5.845152 5.32997,-5.850602 1.19534,-0.002 1.91943,0.13858 3.47622,0.67528 2.3293,0.80302 3.42484,1.51051 4.06636,2.626012 0.68609,1.19301 0.7875,2.21112 0.39345,3.95027 -0.75398,3.32772 -0.61113,3.89668 1.1887,4.73468 1.78128,0.82936 4.09534,0.50587 4.9472,-0.69158 0.61178,-0.85999 1.02645,-2.60225 1.02645,-4.31278 0,-5.861692 -4.14334,-10.833692 -10.34943,-12.419302 -4.53094,-1.15762 -9.75265,0.1635 -13.176896,3.33383 -3.515132,3.25447 -4.811028,6.850142 -4.601243,12.766892 0.120302,3.39299 0.601576,5.37109 2.032632,8.35443 2.691755,5.61153 7.848717,10.08944 13.876317,12.04914 3.05357,0.99278 4.63433,1.22771 8.19238,1.2175 2.90497,-0.008 3.59534,-0.0772 5.50356,-0.54881 4.95677,-1.22513 8.75231,-3.3153 12.1196,-6.67415 3.5654,-3.55647 5.69443,-7.88467 6.65743,-13.53422 0.49917,-2.92843 0.30226,-8.71261 -0.3892,-11.432762 -1.79404,-7.05752 -4.90954,-12.26186 -10.11466,-16.89614 -4.63157,-4.123652 -10.23566,-6.854349 -16.79641,-8.184372 -3.06303,-0.620954 -9.66522,-0.685465 -12.68264,-0.123924 -11.371569,2.116249 -20.559939,8.837166 -25.457961,18.621456 -2.448013,4.89015 -3.995393,12.600032 -3.644412,18.158412 0.761918,12.06624 6.271564,22.75679 15.618696,30.30548 6.934721,5.60043 15.119997,8.93415 24.205727,9.85856 3.62952,0.36928 5.98658,0.37055 9.40912,0.005 10.79435,-1.15263 20.51577,-5.71391 27.8893,-13.08563 4.61509,-4.61396 7.7602,-9.46774 9.91834,-15.30677 6.5855,-17.8176 2.07745,-38.032562 -11.62059,-52.108867 -8.47341,-8.707644 -19.38383,-14.146011 -32.42771,-16.164031 -3.335,-0.515958 -12.23495,-0.515284 -15.501,0.0012 -6.512351,1.029796 -11.569858,2.56142 -17.051147,5.163798 -14.167987,6.726606 -24.943652,19.373183 -28.823041,33.827408 -5.170685,19.265472 -1.045275,38.310902 11.727698,54.142282 1.777805,2.20349 6.537551,6.87678 9.08649,8.92145 8.142529,6.53164 18.46251,11.28377 28.94176,13.32705 18.33636,3.57531 37.36166,-0.55792 52.53746,-11.41372 2.70252,-1.93321 4.97016,-3.82711 7.63549,-6.37706 l 1.96882,-1.8836 -1.20907,-1.33738 c -0.67571,-0.74742 -1.09607,-1.36049 -0.95289,-1.38976 0.69297,-0.14163 14.75252,-1.42206 14.82447,-1.3501 0.10128,0.10128 -1.16826,15.57184 -1.31277,15.99756 -0.073,0.21491 -0.41698,-0.0463 -1.19326,-0.9059 l -1.09075,-1.20787 -1.05688,1.1391 c -2.21856,2.39114 -6.77211,6.25221 -10.31723,8.74825 -4.15032,2.92215 -6.9676,4.5701 -11.79651,6.9003 -7.88505,3.80493 -15.40462,6.05129 -24.42533,7.29668 -3.96894,0.54796 -14.89152,0.70318 -18.93755,0.26913 z"
       id="path122" />
    <path
       style="opacity:1;fill:#00958e;fill-opacity:1;stroke-width:1.35081"
       d="m 273.32085,1057.5677 c -235.506714,-1.1541 -218.693156,-0.4139 -223.158883,-9.8247 -3.377922,-7.1184 -3.057791,-27.1502 0.527881,-33.0314 4.403892,-7.2232 9.088794,-8.3612 34.421349,-8.3612 24.597063,0 28.541263,-0.9863 35.969423,-8.99425 6.4334,-6.93558 8.25215,-12.15963 7.69097,-22.09115 -0.6137,-10.86082 -4.79499,-18.20901 -13.62905,-23.95164 -5.61176,-3.64796 -6.23616,-3.73665 -30.960645,-4.39844 -22.902671,-0.61302 -25.585196,-0.93685 -29.042325,-3.50603 -5.467388,-4.0631 -7.517831,-11.33319 -6.875869,-24.37919 0.952374,-19.35421 4.96389,-22.09046 32.403564,-22.10242 26.401365,-0.0115 32.659935,-1.33097 39.870925,-8.40573 11.5703,-11.35172 12.47978,-28.05604 2.18251,-40.08607 -8.44031,-9.86061 -12.03799,-10.9248 -37.228415,-11.01208 -25.306979,-0.0877 -30.103578,-1.19952 -33.991538,-7.87913 -4.127301,-7.09081 -4.678221,-23.54357 -1.062091,-31.71843 5.215737,-11.79104 -27.206347,-10.86092 324.413194,-9.30671 l 311.36397,1.37627 9.76072,3.39445 c 13.65579,4.74902 21.25834,9.51471 31.56963,19.78958 10.2574,10.22117 18.87063,26.30507 21.54466,40.23137 3.96102,20.62895 -0.79175,44.47288 -12.24848,61.44875 -3.16112,4.68395 -5.74454,9.12413 -5.74094,9.86707 0.004,0.74295 2.68674,5.30192 5.96252,10.13105 28.71331,42.32888 8.77848,102.24913 -39.95642,120.10143 l -9.54732,3.4973 -100.63504,0.1275 c -55.34927,0.07 -196.4712,-0.3422 -313.6043,-0.9162 z m 414.46125,-53.4266 c 19.30787,-12.51948 17.91708,-41.30623 -2.49052,-51.54938 l -6.18303,-3.10345 -252.70073,-0.83113 -252.70074,-0.83115 1.94592,7.3116 c 2.59384,9.74614 2.57471,33.95745 -0.0336,42.55557 -1.10637,3.64704 -2.01817,7.39084 -2.02621,8.31954 -0.0116,1.3449 51.74942,1.6885 254.34189,1.6885 H 682.2916 l 5.49051,-3.5601 z m -2.51874,-107.76615 c 4.70531,-2.46506 11.52959,-9.73874 14.30286,-15.24473 2.90045,-5.75851 2.72309,-17.30871 -0.37036,-24.11927 -1.36865,-3.01324 -5.06293,-7.68227 -8.20951,-10.37562 -4.85409,-4.15492 -6.98007,-5.00767 -14.02924,-5.62728 -18.82414,-1.65459 -499.70271,-3.58162 -501.27587,-2.00877 -0.45342,0.45332 0.22026,6.72005 1.49707,13.92604 2.36684,13.35787 2.27134,15.44539 -1.81171,39.60439 l -0.73938,4.37483 55.19641,0.36856 c 30.35802,0.20271 144.43044,0.51352 253.49425,0.69069 168.77831,0.27417 198.84084,0.0376 201.94548,-1.58884 z"
       id="path2558"
       transform="scale(0.26458333)" />
    <path
       style="opacity:1;fill:#00958e;fill-opacity:1;stroke-width:1.35081"
       d="M 406.59257,763.16062 C 350.52886,756.89329 297.29288,739.88219 252.69295,713.98332 151.7241,655.35144 85.829252,555.30991 73.560872,442.02507 71.47272,422.7433 72.58467,374.72926 75.570208,355.26195 86.909503,281.32363 120.19414,216.7249 172.8604,166.44142 223.59031,118.00668 288.79204,86.064072 358.2204,75.632764 490.2392,55.797516 621.1362,112.96895 692.26477,221.53216 c 22.92847,34.99563 23.05392,45.11957 0.69865,56.38333 -15.21339,7.66531 -19.79178,5.56313 -32.33751,-14.84783 -19.59725,-31.88323 -42.36992,-58.40833 -66.94673,-77.97802 -46.93268,-37.37094 -107.22509,-59.90272 -168.17533,-62.84852 -84.45616,-4.08188 -165.87851,26.87979 -224.40922,85.3339 -40.01604,39.96366 -65.91437,90.16056 -76.54529,148.36233 -2.55687,13.99824 -2.95481,20.90895 -2.91686,50.65522 0.0475,37.21412 0.99777,45.4457 8.6635,75.04382 21.33407,82.37279 79.16101,153.88671 157.30045,194.53165 52.2968,27.20265 106.68091,39.71842 164.92354,37.95493 34.98963,-1.05943 58.81915,-5.00207 92.28356,-15.26851 44.04005,-13.51091 82.81993,-35.54339 123.05487,-69.91264 18.02284,-15.39533 21.23762,-16.7437 29.60474,-12.41689 5.91812,3.06039 15.78113,14.51794 18.39957,21.37421 l 2.41412,6.32128 -3.55562,6.06722 c -3.85473,6.57758 -20.73122,22.3174 -38.02104,35.4602 -52.19006,39.67213 -112.08918,64.74337 -180.27901,75.45719 -16.58101,2.60517 -73.0257,3.83398 -89.82859,1.95559 z"
       id="path3708"
       transform="scale(0.26458333)" />
    <path
       style="opacity:1;fill:#00958e;fill-opacity:1;stroke-width:1.35081"
       d="m 414.05231,688.83427 c -34.62611,-3.28731 -76.24371,-15.53056 -108.71578,-31.9825 -32.33723,-16.38362 -70.16717,-47.14244 -93.478,-76.00524 -27.11095,-33.56799 -47.47927,-76.5898 -56.90432,-120.19287 -3.50096,-16.19645 -3.65426,-18.547 -3.61393,-55.4119 0.0405,-37.01308 0.18544,-39.13569 3.75795,-55.03202 15.24545,-67.8366 51.21217,-121.22695 106.84629,-158.60665 47.0949,-31.64234 102.94952,-47.68031 157.48071,-45.21867 68.04695,3.07176 128.23108,29.00861 174.28028,75.10753 37.0912,37.13126 60.05903,81.82882 69.08474,134.4454 3.73621,21.78066 2.97393,64.16532 -1.53049,85.10077 -10.44613,48.55103 -36.00858,91.99372 -71.3768,121.30291 -29.02455,24.05228 -59.74953,39.49926 -95.48801,48.0066 -13.98623,3.32933 -16.88179,3.53865 -49.30441,3.56405 -32.6517,0.0255 -35.22281,-0.15936 -49.37017,-3.55115 -42.06931,-10.08602 -78.02864,-29.93135 -107.32331,-59.22987 -17.32259,-17.32487 -28.82574,-33.35547 -39.25812,-54.7095 -14.41391,-29.5038 -19.84911,-50.92806 -21.07549,-83.07456 -1.62024,-42.47032 8.26199,-79.90653 29.67239,-112.40603 9.45345,-14.34966 30.79242,-36.48585 44.54704,-46.21129 20.14261,-14.24217 47.79086,-25.80315 74.58437,-31.18708 14.45703,-2.90501 48.47009,-2.90147 64.84627,0.007 87.24111,15.49307 149.95788,91.76412 146.07154,177.64039 -1.80034,39.78226 -16.68279,74.19155 -42.96711,99.34314 -13.28071,12.70838 -22.46725,19.00948 -39.34971,26.99025 -21.62175,10.22113 -31.29098,12.13279 -61.05311,12.07049 -24.03217,-0.0503 -26.4389,-0.2892 -37.82256,-3.75414 -50.07501,-15.24176 -85.66144,-51.75384 -97.94249,-100.49012 -2.00483,-7.95598 -2.65613,-15.17054 -2.67181,-29.5963 -0.0332,-30.56485 6.73711,-52.25927 22.4725,-72.00937 29.85516,-37.47234 82.97928,-48.86173 126.77081,-27.17864 33.66588,16.66945 54.75453,50.2489 54.68419,87.07363 -0.0471,24.66192 -5.94599,40.75016 -20.13606,54.91782 -6.91653,6.90562 -10.9759,9.70501 -18.33846,12.64646 -34.57261,13.81226 -76.33405,-4.75232 -86.31793,-38.37169 -4.06978,-13.70444 -1.8019,-36.19926 4.7193,-46.81021 1.43021,-2.32715 4.4391,-4.99281 6.68642,-5.92369 9.46163,-3.91913 30.54819,3.13672 35.53995,11.89215 2.34039,4.105 2.39722,5.26113 0.7555,15.37037 l -1.77522,10.93149 3.65394,3.143 c 7.28023,6.26219 17.94185,5.66187 23.14192,-1.30307 4.2362,-5.67392 4.6342,-21.99214 0.78629,-32.23846 -4.05493,-10.79763 -14.09775,-21.44507 -25.47899,-27.01299 -8.48663,-4.15181 -9.8204,-4.39776 -23.84825,-4.39776 -13.81818,0 -15.4783,0.29353 -23.70309,4.19106 -15.20853,7.20696 -25.17404,18.60295 -29.07162,33.24471 -2.62305,9.85383 -2.49889,33.76716 0.22343,43.02971 4.11723,14.00865 11.24754,25.62503 22.75699,37.07457 18.71768,18.62028 38.07707,26.32077 66.17157,26.32077 23.45168,0 42.6455,-6.62404 60.59356,-20.91166 36.29029,-28.88898 43.67814,-88.20385 16.88555,-135.56913 -7.92358,-14.00771 -27.79226,-34.06148 -42.78012,-43.17862 -12.61588,-7.67427 -29.51394,-14.26171 -44.58472,-17.38063 -12.95723,-2.68153 -48.45938,-1.86417 -59.9211,1.37956 -39.73674,11.24569 -70.76852,36.25159 -86.75038,69.90483 -14.75934,31.07899 -16.89786,73.42321 -5.47429,108.39516 7.49095,22.93268 19.25416,42.2804 36.72438,60.40299 32.52251,33.73695 74.89255,51.48571 123.37539,51.68179 29.15863,0.11792 53.41551,-5.23377 77.98906,-17.20638 64.97636,-31.65747 100.77292,-95.68272 94.82135,-169.59624 -7.12188,-88.44783 -74.44632,-160.47369 -166.62669,-178.26267 -20.57145,-3.96988 -61.34913,-3.98048 -80.77862,-0.021 -90.09172,18.35952 -153.83153,82.9059 -167.78289,169.90598 -9.44672,58.90942 2.59511,112.22247 37.14968,164.47355 13.29563,20.10474 40.62066,47.38639 61.36729,61.26985 67.55139,45.2048 149.65916,56.38661 226.93538,30.9051 26.29838,-8.67178 59.99963,-27.36852 81.1478,-45.01908 11.27527,-9.41049 22.18885,-19.79579 22.18885,-21.11477 0,-0.52814 -1.57263,-2.82922 -3.49475,-5.11351 -2.5425,-3.02161 -3.00258,-4.31365 -1.68851,-4.74183 2.47804,-0.80746 51.27607,-5.10512 51.81758,-4.56359 0.52671,0.5267 -3.11593,47.18166 -4.18507,53.60239 l -0.75841,4.55464 -3.92906,-3.76428 -3.92905,-3.76428 -11.85085,11.38655 c -42.0304,40.38376 -97.76764,67.85083 -158.41327,78.06544 -18.37904,3.0956 -60.73363,4.5691 -79.66724,2.77158 z"
       id="path3747"
       transform="scale(0.26458333)" />
  </g>
</svg>
